# xmcd CD database file
#
# Track frame offsets:
#	150
#	24987
#	49421
#	74346
#	85030
#	104730
#	124928
#	134184
#	164046
#	182874
#	202637
#
# Disc length: 2815 seconds
#
# Revision: 0
# Processed by: cddbd v1.5.2PL0 Copyright (c) Steve Scherf et al.
# Submitted via: CDex 1.51
#
DISCID=a40afd0b
DTITLE=Solveig Slettahjel - Good Rain
DYEAR=2006
DGENRE=Jazz
TTITLE0=Where Do You Run To
TTITLE1=Another Day
TTITLE2=Dont Look Back
TTITLE3=Colour Lullaby
TTITLE4=Flawless
TTITLE5=We Where Indians
TTITLE6=Do Lord
TTITLE7=My O My
TTITLE8=Good Rain
TTITLE9=The Moon
TTITLE10=P.S. I Love You
EXTD=YEAR: 2006
EXTT0=
EXTT1=
EXTT2=
EXTT3=
EXTT4=
EXTT5=
EXTT6=
EXTT7=
EXTT8=
EXTT9=
EXTT10=
PLAYORDER=
